<?xml version="1.0" encoding="utf-8"?>
<svg id="master-artboard" viewBox="0 0 1400 980" xmlns="http://www.w3.org/2000/svg" width="1400px" height="980px" version="1.1" style="shape-rendering:geometricPrecision; text-rendering:geometricPrecision; image-rendering:optimizeQuality; fill-rule:evenodd; clip-rule:evenodd"><rect id="ee-background" x="0" y="0" width="1400" height="980" style="fill: white; fill-opacity: 1; pointer-events: none;"/>
 
 <metadata id="CorelCorpID_0Corel-Layer"/>
<defs><path id="front-team-curve" d="M1964,4000Q2732,3800,3500,4000"/><path id="front-number-curve" d="M1792,4070Q2777,3970,3672,4070"/><path id="back-name-curve" d="M320,3300Q880,3100,1440,3300"/><path id="back-number-curve" d="M300,3415Q800,3315,1454,3415"/><filter id="biggerbwcopy"><feMorphology operator="dilate" radius="10"/></filter></defs><g transform="matrix(0.478515625, 0, 0, 0.478515625, 209.99991954225698, 0.000006474195743066957)"><path id="ZONE(base)" fill="#e40038" d="M517.1 918c9.8 0 202.3 87 202.3 87s-37.3 110.9-45.3 162.4-16 103.8 31.9 145.5l47.9 41.7s11.5 164.1 7.1 213.8 21.3 456.1 21.3 456.1H17.6s25.7-406.4 24-450.7-2.7-217.4 1.8-226.3 55.9-24.8 66.5-70.1c10.6-45.3 20.4-95.8-1.8-170.4s-31.9-104.7-31.9-104.7l196-84.3h244.9zm590 30.2l-194.3 79s13.4 33.2 25.2 78.8c11.8 45.7-4.7 114.9-25.6 150.1-23.8 40-64.9 38.6-69.3 47.5-4.4 8.9 16.6 225.8 18.3 270.2 1.8 44.4-24 450.7-24 450.7h764.8s-20.7-406.2-21.3-456.1c-1.8-139.3 25.7-262.6 25.7-262.6s-74.5-13.3-93.2-89.6 21.3-180.1 21.3-180.1-184.6-80.7-194.3-80.7l-233.3-7.2z"/><path id="ZONE(inner-placket)" fill="#003160" d="M1828.1 1651.7h42.2v182.7h-42.2z"/><path id="ZONE(outer-placket)" fill="#e40038" d="M1913.2 1834.4h-.2l.2 13.6-96.6-1v-70.4l54.4.3v-125.2h42.2z"/><path id="ZONE(collar)" fill="#e40038" d="M1626.3 1322.6h95.9v690.7h-95.9zm108.3-7h70.4v710.1h-70.4z"/><path id="ZONE(collar-trim)" fill="#003160" d="M1709.7 1296.3h17.8v735.6h-17.8z"/><path id="ZONE(sleeves)" fill="#e40038" d="M 75.2 564.3 C 75.2 564.3 123.5 546.3 132.5 535.6999999999999 C 162.6 499.8999999999999 217.9 446.5999999999999 240.9 434.29999999999995 C 269.8 418.79999999999995 312.9 400.99999999999994 432.9 405.69999999999993 C 552.9 410.3999999999999 630.3 526.4999999999999 636.5 531.9 C 642.7 537.3000000000001 700 565.1999999999999 700 565.1999999999999 C 700 565.1999999999999 681.4 617.8 676.8 644.9 C 672.1999999999999 672 676 724.6 676 724.6 C 729.0847941003432 866.1594509842353 185.3966621529438 956.5910990343864 98.4 724.6 C 102.30000000000001 649.4 75.2 564.3 75.2 564.3 Z M 908.7 724.5 C 912.8005833578628 863.919410756953 1491.5237339669336 905.5064052006372 1486.2 724.5 C 1486.2 724.5 1482.3 671.9 1487 644.8 C 1491.6 617.6999999999999 1510.2 565.0999999999999 1510.2 565.0999999999999 C 1510.2 565.0999999999999 1452.9 537.1999999999999 1446.7 531.8 C 1440.5 526.4 1363.1000000000001 410.29999999999995 1243.1000000000001 405.59999999999997 C 1123.1000000000001 400.99999999999994 1080.1000000000001 418.7 1051.1000000000001 434.2 C 1028.1000000000001 446.5 972.8000000000002 499.79999999999995 942.7000000000002 535.6 C 933.7000000000002 546.3000000000001 885.4000000000002 564.2 885.4000000000002 564.2 C 885.4000000000002 564.2 912.6000000000003 649.4000000000001 908.7000000000002 724.5 L 908.7 724.5 Z"/><g id="ZONE(sleeve-trim-2)" fill="#FFFFFF"><path id="ZONE(sleeve-trim) 2" fill="#fff" d="M48.4 683.5h1461.8v22H48.4z"/></g><path id="ZONE(sleeve-trim)" fill="#fff" d="M48.4 700.7h1461.8v24.8H48.4z"/><g id="ZONE(sportility-link)" fill="#fff"><path d="M1114.3 1208c-4.8-4.8-12.5-4.8-17.2 0l-9.8 9.8a6.85 6.85 0 0 0-.2 9.8c2.7 2.8 7.1 2.9 9.8.2l.2-.2 9.8-9.8c.7-.7.7-1.8 0-2.4-.7-.7-1.8-.7-2.4 0l-9.8 9.8c-1.4 1.4-3.6 1.3-4.9-.1s-1.3-3.5 0-4.9l9.8-9.8a8.7 8.7 0 0 1 12.3.1c3.3 3.4 3.3 8.9 0 12.3l-6 6c6.7-.1 12.1-5.6 12.1-12.3-.1-3.2-1.4-6.3-3.7-8.5"/><path d="M1110.6 1221.5c2.6-2.8 2.5-7.2-.3-9.8a6.88 6.88 0 0 0-9.6 0l-9.8 9.8c-.7.7-.7 1.8 0 2.4.7.7 1.8.7 2.4 0l9.8-9.8c1.4-1.4 3.6-1.4 4.9 0 1.4 1.4 1.4 3.6 0 4.9l-9.8 9.8a8.7 8.7 0 0 1-12.3-.1 8.88 8.88 0 0 1 0-12.3l6-6c-6.7.1-12.1 5.6-12.1 12.3s5.6 12.1 12.3 12.1c3.2-.1 6.3-1.3 8.5-3.6l10-9.7z"/></g><path fill="#fff" d="M1927.3 1658.4c6.4 0 11.7-5.2 11.7-11.7s-5.3-11.7-11.7-11.7-11.7 5.2-11.7 11.7c0 6.4 5.2 11.7 11.7 11.7zm.8-13.6c.4 0 .8.4.8.8s-.4.8-.8.8c-.5 0-.8-.4-.8-.8s.4-.8.8-.8zm0 2.5c.4 0 .8.4.8.8s-.4.8-.8.8c-.5 0-.8-.4-.8-.8s.4-.8.8-.8zm-2.4 1.6c-.4 0-.8-.3-.8-.8 0-.4.4-.8.8-.8s.8.4.8.8-.4.8-.8.8zm0-4.1c.4 0 .8.4.8.8s-.4.8-.8.8-.8-.4-.8-.8.4-.8.8-.8zm1.6 118.4c-6.5 0-11.7 5.3-11.7 11.7s5.3 11.7 11.7 11.7c6.5 0 11.7-5.3 11.7-11.7s-5.3-11.7-11.7-11.7zm-1.5 13.6c-.4 0-.8-.4-.8-.8s.4-.8.8-.8c.5 0 .8.4.8.8s-.4.8-.8.8zm0-2.5c-.4 0-.8-.4-.8-.8s.4-.8.8-.8c.5 0 .8.4.8.8s-.4.8-.8.8zm2.4 2.5c-.4 0-.8-.4-.8-.8s.4-.8.8-.8.8.4.8.8-.4.8-.8.8zm0-2.5c-.4 0-.8-.4-.8-.8s.4-.8.8-.8.8.4.8.8-.4.8-.8.8zm-.9-54.7c-6.5 0-11.7 5.3-11.7 11.7 0 6.5 5.3 11.7 11.7 11.7 6.5 0 11.7-5.3 11.7-11.7 0-6.5-5.3-11.7-11.7-11.7zm-1.5 14.2c-.4 0-.8-.4-.8-.8s.4-.8.8-.8c.5 0 .8.4.8.8s-.4.8-.8.8zm0-2.5c-.4 0-.8-.4-.8-.8s.4-.8.8-.8c.5 0 .8.4.8.8s-.4.8-.8.8zm2.4 2.5c-.4 0-.8-.4-.8-.8s.4-.8.8-.8.8.4.8.8-.4.8-.8.8zm0-2.5c-.4 0-.8-.4-.8-.8s.4-.8.8-.8.8.4.8.8-.4.8-.8.8zm-.9-56c-6.5 0-11.7 5.3-11.7 11.7 0 6.5 5.3 11.7 11.7 11.7 6.5 0 11.7-5.3 11.7-11.7 0-6.5-5.3-11.7-11.7-11.7zm-1.5 14c-.4 0-.8-.4-.8-.8s.4-.8.8-.8c.5 0 .8.4.8.8s-.4.8-.8.8zm0-2.5c-.4 0-.8-.4-.8-.8s.4-.8.8-.8c.5 0 .8.4.8.8s-.4.8-.8.8zm2.4 2.5c-.4 0-.8-.4-.8-.8s.4-.8.8-.8.8.4.8.8-.4.8-.8.8zm0-2.5c-.4 0-.8-.4-.8-.8s.4-.8.8-.8.8.4.8.8-.4.8-.8.8z"/><g style="paint-order:stroke" stroke-linejoin="round">
<path d="M 1123.6602783203125 1480 L 1120.30029296875 1480 L 1120.30029296875 1447.9000244140625 L 1109.38037109375 1480 L 1105.7203369140625 1480 L 1094.8603515625 1447.9000244140625 L 1094.8603515625 1480 L 1091.5003662109375 1480 L 1091.5003662109375 1438 L 1094.8603515625 1438 L 1107.520263671875 1474.8399658203125 L 1120.30029296875 1438 L 1123.6602783203125 1438 L 1123.6602783203125 1480 ZM 1164.10400390625 1480.4200439453125 L 1163.3240966796875 1478.199951171875 C 1165.7640380859375 1477.280029296875 1166.9840087890625 1474.8399658203125 1166.9840087890625 1470.8800048828125 L 1166.9840087890625 1462.3599853515625 C 1165.904052734375 1463.3199462890625 1164.464111328125 1464.050048828125 1162.6640625 1464.550048828125 C 1160.864013671875 1465.050048828125 1159.14404296875 1465.300048828125 1157.5040283203125 1465.300048828125 C 1153.2640380859375 1465.300048828125 1149.9140625 1464.25 1147.4541015625 1462.1500244140625 C 1144.9940185546875 1460.050048828125 1143.7640380859375 1456.93994140625 1143.7640380859375 1452.8199462890625 L 1143.7640380859375 1438 L 1147.1240234375 1438 L 1147.1240234375 1453.4200439453125 C 1147.1240234375 1456.219970703125 1148.0841064453125 1458.3499755859375 1150.0040283203125 1459.81005859375 C 1151.924072265625 1461.27001953125 1154.2440185546875 1462 1156.964111328125 1462 C 1159.68408203125 1462 1161.924072265625 1461.5 1163.68408203125 1460.5 C 1165.444091796875 1459.5 1166.5440673828125 1458 1166.9840087890625 1456 L 1166.9840087890625 1438 L 1170.404052734375 1438 L 1170.404052734375 1470.6400146484375 C 1170.404052734375 1473.56005859375 1169.85400390625 1475.8499755859375 1168.7540283203125 1477.510009765625 C 1167.654052734375 1479.1700439453125 1166.10400390625 1480.1400146484375 1164.10400390625 1480.4200439453125 ZM 1208.73974609375 1480 L 1205.379638671875 1480 L 1205.379638671875 1441 L 1195.1796875 1441 L 1195.1796875 1438 L 1219.2996826171875 1438 L 1219.2996826171875 1441 L 1208.73974609375 1441 L 1208.73974609375 1480 ZM 1256.4359130859375 1480 L 1236.5159912109375 1480 L 1236.5159912109375 1438 L 1256.555908203125 1438 L 1256.555908203125 1441.1199951171875 L 1239.8759765625 1441.1199951171875 L 1239.8759765625 1455.219970703125 L 1251.3359375 1455.219970703125 L 1250.1959228515625 1458.52001953125 L 1239.8759765625 1458.52001953125 L 1239.8759765625 1477 L 1256.4359130859375 1477 L 1256.4359130859375 1480 ZM 1299.49658203125 1480 L 1295.8966064453125 1480 L 1291.0965576171875 1465.300048828125 L 1277.41650390625 1465.300048828125 L 1272.736572265625 1480 L 1269.196533203125 1480 L 1282.6365966796875 1438 L 1285.8165283203125 1438 L 1299.49658203125 1480 M 1290.196533203125 1462 L 1284.196533203125 1443.219970703125 L 1278.3765869140625 1462 L 1290.196533203125 1462 ZM 1348.6602783203125 1480 L 1345.30029296875 1480 L 1345.30029296875 1447.9000244140625 L 1334.38037109375 1480 L 1330.7203369140625 1480 L 1319.8603515625 1447.9000244140625 L 1319.8603515625 1480 L 1316.5003662109375 1480 L 1316.5003662109375 1438 L 1319.8603515625 1438 L 1332.520263671875 1474.8399658203125 L 1345.30029296875 1438 L 1348.6602783203125 1438 L 1348.6602783203125 1480 Z" transform="matrix(1, 0, 0, 1, 0, 0)" style="stroke: rgb(26, 24, 25); stroke-width: 8; fill: rgb(95, 0, 42); white-space: pre;"/>
<path d="M 1190.800048828125 1499.5999755859375 L 1207.5999755859375 1499.5999755859375 L 1207.5999755859375 1470.800048828125 L 1244.4000244140625 1470.800048828125 L 1244.4000244140625 1497.52001953125 L 1235.9200439453125 1506 L 1154 1506 L 1154 1450.47998046875 L 1164.0799560546875 1440.4000244140625 L 1207.5999755859375 1440.4000244140625 L 1207.5999755859375 1387.5999755859375 L 1190.800048828125 1387.5999755859375 L 1190.800048828125 1416.4000244140625 L 1154 1416.4000244140625 L 1154 1396.0799560546875 L 1168.8800048828125 1381.199951171875 L 1229.52001953125 1381.199951171875 L 1244.4000244140625 1396.0799560546875 L 1244.4000244140625 1433.52001953125 L 1231.1199951171875 1446.800048828125 L 1190.800048828125 1446.800048828125 L 1190.800048828125 1499.5999755859375 ZM 1245.6800537109375 1506 L 1304.719970703125 1506 L 1319.5999755859375 1491.1199951171875 L 1319.5999755859375 1453.6800537109375 L 1308.0799560546875 1442 L 1319.5999755859375 1430.47998046875 L 1319.5999755859375 1396.0799560546875 L 1304.719970703125 1381.199951171875 L 1245.6800537109375 1381.199951171875 L 1232.4000244140625 1394.47998046875 L 1232.4000244140625 1416.4000244140625 L 1267.5999755859375 1416.4000244140625 L 1267.5999755859375 1387.5999755859375 L 1282.800048828125 1387.5999755859375 L 1282.800048828125 1438.800048828125 L 1252.4000244140625 1438.800048828125 L 1252.4000244140625 1445.199951171875 L 1282.800048828125 1445.199951171875 L 1282.800048828125 1499.5999755859375 L 1267.5999755859375 1499.5999755859375 L 1267.5999755859375 1470.800048828125 L 1232.4000244140625 1470.800048828125 L 1232.4000244140625 1492.719970703125 L 1245.6800537109375 1506 Z" transform="matrix(1, 0, 0, 1, 0, 0)" style="stroke: rgb(255, 255, 255); stroke-width: 10; fill: rgb(26, 24, 25); white-space: pre;"/>
<path d="M 283.5196838378906 1104.199951171875 L 296.5896911621094 1104.199951171875 C 298.1763610839844 1104.199951171875 299.5196838378906 1103.8800048828125 300.61968994140625 1103.239990234375 C 301.7196960449219 1102.606689453125 302.53302001953125 1101.893310546875 303.0596923828125 1101.0999755859375 C 303.58636474609375 1100.306640625 303.9830322265625 1099.2266845703125 304.24969482421875 1097.8599853515625 C 304.60302734375 1096.3199462890625 304.7796936035156 1094.3399658203125 304.7796936035156 1091.9200439453125 C 304.7796936035156 1088.3599853515625 304.0196838378906 1085.699951171875 302.49969482421875 1083.93994140625 C 300.97967529296875 1082.1800537109375 298.92303466796875 1081.300048828125 296.3296813964844 1081.300048828125 L 283.5196838378906 1081.300048828125 L 283.5196838378906 1104.199951171875 M 283.5196838378906 1124 L 279.8296813964844 1124 L 279.8296813964844 1077.800048828125 L 296.0596923828125 1077.800048828125 C 300.23968505859375 1077.800048828125 303.35302734375 1079.07666015625 305.3996887207031 1081.6300048828125 C 307.44635009765625 1084.183349609375 308.4696960449219 1087.61328125 308.4696960449219 1091.9200439453125 C 308.4696960449219 1093.4599609375 308.43634033203125 1094.77001953125 308.36968994140625 1095.8499755859375 C 308.3030090332031 1096.9300537109375 308.0496826171875 1098.2933349609375 307.60968017578125 1099.93994140625 C 307.169677734375 1101.5933837890625 306.5563659667969 1102.9366455078125 305.7696838378906 1103.969970703125 C 304.9763488769531 1105.0032958984375 303.7863464355469 1105.9066162109375 302.1996765136719 1106.6800537109375 C 300.61968994140625 1107.4466552734375 298.72967529296875 1107.8299560546875 296.5296936035156 1107.8299560546875 L 283.5196838378906 1107.8299560546875 L 283.5196838378906 1124 ZM 340.3528137207031 1124 L 316.5328063964844 1124 L 316.5328063964844 1077.800048828125 L 320.2228088378906 1077.800048828125 L 320.2228088378906 1120.699951171875 L 340.3528137207031 1120.699951171875 L 340.3528137207031 1124 ZM 385.8153076171875 1124 L 381.8553161621094 1124 L 376.5753173828125 1107.8299560546875 L 361.5252990722656 1107.8299560546875 L 356.38531494140625 1124 L 352.4853210449219 1124 L 367.2752990722656 1077.800048828125 L 370.76531982421875 1077.800048828125 L 385.8153076171875 1124 M 375.5853271484375 1104.199951171875 L 368.9853210449219 1083.5400390625 L 362.5853271484375 1104.199951171875 L 375.5853271484375 1104.199951171875 ZM 419.6346740722656 1124.4599609375 L 418.7846984863281 1122.02001953125 C 421.4646911621094 1121.0067138671875 422.8046875 1118.3233642578125 422.8046875 1113.969970703125 L 422.8046875 1104.5999755859375 C 421.6180114746094 1105.6533203125 420.0346984863281 1106.453369140625 418.0546875 1107 C 416.0746765136719 1107.5533447265625 414.1813659667969 1107.8299560546875 412.37469482421875 1107.8299560546875 C 407.7146911621094 1107.8299560546875 404.0313415527344 1106.67333984375 401.3246765136719 1104.3599853515625 C 398.6180114746094 1102.0533447265625 397.2646789550781 1098.63330078125 397.2646789550781 1094.0999755859375 L 397.2646789550781 1077.800048828125 L 400.9646911621094 1077.800048828125 L 400.9646911621094 1094.760009765625 C 400.9646911621094 1097.8399658203125 402.01800537109375 1100.183349609375 404.12469482421875 1101.7900390625 C 406.2380065917969 1103.396728515625 408.7913513183594 1104.199951171875 411.7846984863281 1104.199951171875 C 414.77801513671875 1104.199951171875 417.2413635253906 1103.6500244140625 419.1746826171875 1102.550048828125 C 421.11468505859375 1101.449951171875 422.3246765136719 1099.800048828125 422.8046875 1097.5999755859375 L 422.8046875 1077.800048828125 L 426.564697265625 1077.800048828125 L 426.564697265625 1113.699951171875 C 426.564697265625 1116.913330078125 425.96136474609375 1119.433349609375 424.75469970703125 1121.260009765625 C 423.5413513183594 1123.086669921875 421.8346862792969 1124.1533203125 419.6346740722656 1124.4599609375 ZM 468.02093505859375 1124 L 446.1109313964844 1124 L 446.1109313964844 1077.800048828125 L 468.15093994140625 1077.800048828125 L 468.15093994140625 1081.22998046875 L 449.8009338378906 1081.22998046875 L 449.8009338378906 1096.739990234375 L 462.41094970703125 1096.739990234375 L 461.16094970703125 1100.3699951171875 L 449.8009338378906 1100.3699951171875 L 449.8009338378906 1120.699951171875 L 468.02093505859375 1120.699951171875 L 468.02093505859375 1124 ZM 515.1334228515625 1124 L 511.3734436035156 1124 L 505.763427734375 1107.6300048828125 C 504.9700927734375 1107.7633056640625 504.0901184082031 1107.8299560546875 503.1234436035156 1107.8299560546875 L 490.1134338378906 1107.8299560546875 L 490.1134338378906 1124 L 486.4234313964844 1124 L 486.4234313964844 1077.800048828125 L 502.6534423828125 1077.800048828125 C 506.83343505859375 1077.800048828125 509.94677734375 1079.07666015625 511.9934387207031 1081.6300048828125 C 514.0401000976562 1084.183349609375 515.0634155273438 1087.61328125 515.0634155273438 1091.9200439453125 C 515.0634155273438 1093.9932861328125 514.9867553710938 1095.7532958984375 514.8334350585938 1097.199951171875 C 514.6801147460938 1098.6533203125 514.1400756835938 1100.336669921875 513.2134399414062 1102.25 C 512.29345703125 1104.163330078125 510.97344970703125 1105.5833740234375 509.2534484863281 1106.510009765625 L 515.1334228515625 1124 M 490.1134338378906 1104.199951171875 L 503.1834411621094 1104.199951171875 C 504.7701110839844 1104.199951171875 506.1134338378906 1103.8800048828125 507.21343994140625 1103.239990234375 C 508.3134460449219 1102.606689453125 509.12677001953125 1101.893310546875 509.6534423828125 1101.0999755859375 C 510.18011474609375 1100.306640625 510.5767822265625 1099.2266845703125 510.84344482421875 1097.8599853515625 C 511.19677734375 1096.3199462890625 511.3734436035156 1094.3399658203125 511.3734436035156 1091.9200439453125 C 511.3734436035156 1088.3599853515625 510.6134338378906 1085.699951171875 509.09344482421875 1083.93994140625 C 507.57342529296875 1082.1800537109375 505.51678466796875 1081.300048828125 502.9234313964844 1081.300048828125 L 490.1134338378906 1081.300048828125 L 490.1134338378906 1104.199951171875 Z" transform="matrix(1, 0, 0, 1, 0, 0)" style="stroke: rgb(26, 24, 25); stroke-width: 8; fill: rgb(95, 0, 42); white-space: pre;"/>
<path d="M 362.6000061035156 1163.199951171875 L 380.45001220703125 1163.199951171875 L 380.45001220703125 1132.5999755859375 L 419.54998779296875 1132.5999755859375 L 419.54998779296875 1160.989990234375 L 410.5400085449219 1170 L 323.5 1170 L 323.5 1111.010009765625 L 334.2099914550781 1100.300048828125 L 380.45001220703125 1100.300048828125 L 380.45001220703125 1044.199951171875 L 362.6000061035156 1044.199951171875 L 362.6000061035156 1074.800048828125 L 323.5 1074.800048828125 L 323.5 1053.2099609375 L 339.30999755859375 1037.4000244140625 L 403.739990234375 1037.4000244140625 L 419.54998779296875 1053.2099609375 L 419.54998779296875 1092.989990234375 L 405.44000244140625 1107.0999755859375 L 362.6000061035156 1107.0999755859375 L 362.6000061035156 1163.199951171875 ZM 420.9100036621094 1170 L 483.6400146484375 1170 L 499.45001220703125 1154.18994140625 L 499.45001220703125 1114.4100341796875 L 487.2099914550781 1102 L 499.45001220703125 1089.760009765625 L 499.45001220703125 1053.2099609375 L 483.6400146484375 1037.4000244140625 L 420.9100036621094 1037.4000244140625 L 406.79998779296875 1051.510009765625 L 406.79998779296875 1074.800048828125 L 444.20001220703125 1074.800048828125 L 444.20001220703125 1044.199951171875 L 460.3500061035156 1044.199951171875 L 460.3500061035156 1098.5999755859375 L 428.04998779296875 1098.5999755859375 L 428.04998779296875 1105.4000244140625 L 460.3500061035156 1105.4000244140625 L 460.3500061035156 1163.199951171875 L 444.20001220703125 1163.199951171875 L 444.20001220703125 1132.5999755859375 L 406.79998779296875 1132.5999755859375 L 406.79998779296875 1155.8900146484375 L 420.9100036621094 1170 Z" transform="matrix(1, 0, 0, 1, 0, 0)" style="stroke: rgb(255, 255, 255); stroke-width: 10; fill: rgb(26, 24, 25); white-space: pre;"/>
</g></g></svg>